<?xml version="1.0" encoding="UTF-8" standalone="no"?>
<svg
   xmlns:dc="http://purl.org/dc/elements/1.1/"
   xmlns:cc="http://creativecommons.org/ns#"
   xmlns:rdf="http://www.w3.org/1999/02/22-rdf-syntax-ns#"
   xmlns:svg="http://www.w3.org/2000/svg"
   xmlns="http://www.w3.org/2000/svg"
   xmlns:sodipodi="http://sodipodi.sourceforge.net/DTD/sodipodi-0.dtd"
   xmlns:inkscape="http://www.inkscape.org/namespaces/inkscape"
   width="346.45691mm"
   height="44.453102mm"
   viewBox="0 0 346.45691 44.453102"
   version="1.1"
   id="svg956"
   inkscape:version="1.0.2 (e86c870879, 2021-01-15, custom)"
   sodipodi:docname="discoursewhite.svg">
  <defs
     id="defs950" />
  <sodipodi:namedview
     id="base"
     pagecolor="#ffffff"
     bordercolor="#666666"
     borderopacity="1.0"
     inkscape:pageopacity="0.0"
     inkscape:pageshadow="2"
     inkscape:zoom="0.35"
     inkscape:cx="651.86457"
     inkscape:cy="244.00585"
     inkscape:document-units="mm"
     inkscape:current-layer="layer1"
     inkscape:document-rotation="0"
     showgrid="false"
     fit-margin-top="0"
     fit-margin-left="0"
     fit-margin-right="0"
     fit-margin-bottom="0"
     inkscape:window-width="1431"
     inkscape:window-height="785"
     inkscape:window-x="2516"
     inkscape:window-y="269"
     inkscape:window-maximized="0" />
  <metadata
     id="metadata953">
    <rdf:RDF>
      <cc:Work
         rdf:about="">
        <dc:format>image/svg+xml</dc:format>
        <dc:type
           rdf:resource="http://purl.org/dc/dcmitype/StillImage" />
        <dc:title></dc:title>
      </cc:Work>
    </rdf:RDF>
  </metadata>
  <g
     inkscape:label="Layer 1"
     inkscape:groupmode="layer"
     id="layer1"
     transform="translate(66.639167,-83.606786)">
    <path
       id="text835-7-3-1-2-8-7-4"
       style="font-style:normal;font-variant:normal;font-weight:normal;font-stretch:normal;font-size:51.9696px;line-height:1.25;font-family:Ubuntu;-inkscape-font-specification:'Ubuntu, Normal';font-variant-ligatures:normal;font-variant-caps:normal;font-variant-numeric:normal;font-variant-east-asian:normal;fill:#ffffff;stroke-width:0.270674"
       d="m -18.898927,83.606786 c -5.73327,2.7e-4 -11.14698,1.62828 -15.24352,4.58525 -1.12263,0.81043 -2.10965,1.69636 -2.96055,2.64118 -2.41273,-0.66623 -4.98879,-1.01958 -7.63674,-1.01958 -5.73299,0 -11.1467,1.62879 -15.2435,4.58577 -4.29233,3.09801 -6.65593,7.278474 -6.65593,11.772414 0,4.47517 2.4,8.69483 6.63783,11.75897 l -1.98954,7.64501 c -0.20107,0.77179 0.08,1.58877 0.71262,2.07429 0.35402,0.27146 0.77932,0.4098 1.20768,0.4098 0.33655,0 0.67497,-0.0854 0.98031,-0.2589 l 9.87484,-5.61103 c 1.46712,0.22595 2.96918,0.34003 4.47518,0.34003 5.73325,0 11.14697,-1.62801 15.24351,-4.58473 1.12184,-0.80962 2.10866,-1.69456 2.95744,-2.63912 2.41379,0.66543 4.99188,1.017 7.64036,1.017 1.50469,0 3.00647,-0.11407 4.47518,-0.34003 l 9.8753699,5.61102 c 0.30533,0.17358 0.64375,0.2589 0.9803,0.2589 0.42784,0 0.85367,-0.1378 1.20768,-0.40979 0.63289,-0.48525 0.9137,-1.30251 0.71262,-2.07429 l -1.99007,-7.64502 c 4.23783996,-3.06439 6.63784,-7.28382 6.63784,-11.758454 0,-4.49394 -2.36334004,-8.67543 -6.6554,-11.77344 -4.09681,-2.95697 -9.5105199,-4.58525 -15.2435099,-4.58525 z m 0,3.96823 c 9.8869499,0 17.93067986,5.55815 17.93067986,12.38994 -2.5e-4,3.488004 -2.18401996,6.845434 -5.99135996,9.211334 -0.73794,0.45851 -1.0919,1.34428 -0.87282,2.18539 l 1.16117,4.46123 -6.4037399,-3.63854 c -0.30058,-0.17091 -0.63873,-0.25941 -0.98031,-0.25941 -0.11721,0 -0.23522,0.0103 -0.35191,0.0315 -1.46394,0.26353 -2.9754,0.39739 -4.49171,0.39739 -9.88722,0 -17.93069,-5.55763 -17.93069,-12.388914 0,-6.83153 8.04347,-12.38967 17.93069,-12.38994 z m 104.318174,1.20355 c -10.22606,0 -14.56448,2.44382 -14.56448,8.22895 0,3.989754 2.45307,5.610274 7.85016,6.931884 l 6.30091,1.54616 c 1.80764,0.44884 2.68562,1.09747 2.68563,2.69337 0,2.29411 -2.37564,3.29127 -7.90185,3.29127 -2.47904,0 -5.11287,-0.24929 -8.72815,-0.79788 l -0.62012,4.78782 c 2.4274,0.54859 5.21653,0.74776 9.34827,0.74776 9.50301,0 13.58315,-2.44331 13.58315,-8.1287 0,-4.23911 -2.58246,-6.18427 -8.31525,-7.53081 l -5.06119,-1.196834 c -2.34993,-0.54859 -3.46026,-1.04761 -3.46026,-2.59364 0,-2.2941 2.58218,-3.24166 8.72815,-3.24166 2.01423,0 4.02823,0.1 6.81716,0.34933 l 0.56844,-4.58835 c -2.4274,-0.3491 -4.59658,-0.49868 -7.23057,-0.49867 z m 29.386833,0 c -8.90907,0 -13.89321,5.03696 -13.89321,13.664794 0,8.8772 5.11337,13.76454 14.09991,13.76454 3.04716,0 6.30109,-0.1493 9.2966,-0.74776 l -0.62012,-4.63847 c -2.58234,0.39896 -5.3196,0.64853 -8.05688,0.64853 -5.78444,0 -9.03821,-3.24142 -9.03821,-9.27592 0,-5.535774 2.94382,-8.678024 8.0052,-8.678024 2.8664,0 5.37163,1.39649 6.92103,3.81527 l 4.20905,-3.06699 c -1.62688,-3.49103 -5.60375,-5.48597 -10.92337,-5.48597 z m 29.0773,0 c -7.59208,0 -11.98222,4.98734 -11.98222,13.714924 0,8.72757 4.39014,13.71441 11.98222,13.71441 7.59207,0 11.98169,-4.98684 11.98169,-13.71441 0,-8.727584 -4.38962,-13.714934 -11.98169,-13.714924 z m 68.1736,0 c -4.75149,0 -7.23074,2.39376 -7.54062,7.28121 h -0.61961 l -0.92964,-6.78254 h -9.50278 v 4.33876 h 5.0612 v 17.754474 h -6.09421 v 4.33875 h 18.28311 v -4.33875 h -6.7143 v -7.03213 c 0,-7.081804 2.27229,-11.071164 6.92049,-11.071164 2.63398,0 3.77031,1.59571 3.77031,5.43584 h 5.42293 c 0,-6.98206 -2.42737,-9.92446 -8.05688,-9.92445 z m 28.30267,0 c -10.22605,0 -14.56447,2.44382 -14.56447,8.22895 0,3.989754 2.45306,5.610274 7.85016,6.931884 l 6.30089,1.54616 c 1.80767,0.44884 2.68564,1.09747 2.68564,2.69337 0,2.29411 -2.37562,3.29127 -7.90184,3.29127 -2.47904,0 -5.11286,-0.24929 -8.72816,-0.79788 l -0.6201,4.78782 c 2.42739,0.54859 5.21652,0.74776 9.34826,0.74776 9.50301,0 13.58315,-2.44331 13.58315,-8.1287 0,-4.23911 -2.58246,-6.18427 -8.31525,-7.53081 l -5.06119,-1.196834 c -2.34995,-0.54859 -3.46077,-1.04761 -3.46077,-2.59364 0,-2.2941 2.5827,-3.24166 8.72866,-3.24166 2.01422,0 4.02823,0.1 6.81715,0.34933 l 0.56846,-4.58835 c -2.4274,-0.3491 -4.59658,-0.49868 -7.23059,-0.49867 z m 27.83758,0 c -7.85029,0 -12.34395,5.03696 -12.34395,13.664794 0,8.8772 5.26809,13.76454 14.61616,13.76454 2.06587,0 4.75147,-0.0997 8.00521,-0.69815 l -0.67127,-4.63796 c -2.27246,0.44885 -4.44188,0.69815 -6.71433,0.69815 -5.50037,0 -8.96073,-2.31926 -9.91619,-6.73292 h 18.48982 c 0.1033,-1.04731 0.15505,-2.14421 0.15505,-3.39101 0,-8.228864 -4.235,-12.667444 -11.6205,-12.667444 z m -104.79153,0.49867 v 17.455274 c 0,6.03449 3.27959,9.47539 9.03821,9.47539 3.66692,0 6.30089,-1.99493 7.17889,-5.58571 h 0.49092 l 0.38706,5.33663 8.77983,-0.2496 v -4.23902 l -3.7698,-0.5488 V 89.277236 h -5.4746 v 14.213604 c 0,5.76021 -2.06624,7.97936 -6.04304,7.97936 -3.22793,0 -5.11287,-1.69551 -5.11287,-4.73769 V 89.277236 Z m -151.133397,0.71521 v 26.223724 h 8.5328 c 10.76524,0 16.123054,-4.22897 16.123054,-12.74238 0,-9.030494 -5.357814,-13.481344 -16.123054,-13.481344 z m 29.964054,0 v 3.50882 h 8.21035 v 19.206074 h -8.21035 v 3.50883 h 21.43125 v -3.50883 h -8.25996 V 93.501266 h 8.25996 v -3.50882 z m 226.012573,3.42407 c 4.13168,0 6.61043,2.64312 6.61043,7.380954 h -13.89269 c 0.439,-4.712894 3.04721,-7.380954 7.28226,-7.380954 z m -251.015707,0.0847 h 3.57188 c 7.24298,0 10.91406,3.30584 10.91406,9.972524 0,6.1496 -3.67108,9.23355 -10.91406,9.23355 h -3.57188 z m 126.650157,0.015 c 4.02845,0 6.3009,3.24197 6.3009,8.977234 0,5.73526 -2.27245,8.97671 -6.3009,8.97671 -4.02845,0 -6.30091,-3.24145 -6.30091,-8.97671 0,-5.735264 2.27246,-8.977234 6.30091,-8.977234 z m -172.576547,4.63486 c -1.27211,0 -2.30735,1.03524 -2.30735,2.307354 0,1.27213 1.03524,2.30736 2.30735,2.30736 1.27265,0 2.30787,-1.03523 2.30787,-2.30736 0,-1.272114 -1.03522,-2.307354 -2.30787,-2.307354 z m 6.52983,0 c -1.27238,0 -2.30787,1.03524 -2.30787,2.307354 0,1.27213 1.03549,2.30736 2.30787,2.30736 1.27238,0 2.30735,-1.03523 2.30735,-2.30736 -2.5e-4,-1.272114 -1.03523,-2.307354 -2.30735,-2.307354 z m 6.5288,0 c -1.27238,0 -2.30735,1.03524 -2.30735,2.307354 0,1.27238 1.0347,2.30736 2.30735,2.30736 1.27211,0 2.30684,-1.03498 2.30684,-2.30736 0,-1.272114 -1.03473,-2.307354 -2.30684,-2.307354 z m 6.5293199,0 c -1.2723799,0 -2.3073499,1.03524 -2.3073499,2.307354 0,1.27238 1.03497,2.30736 2.3073499,2.30736 1.27212,0 2.30735,-1.03498 2.30735,-2.30736 0,-1.272114 -1.03523,-2.307354 -2.30735,-2.307354 z" />
  </g>
</svg>
